<?xml version="1.0" encoding="iso-8859-1"?>
<!-- Uploaded to: SVG Repo, www.svgrepo.com, Generator: SVG Repo Mixer Tools -->
<svg height="800px" width="800px" version="1.1" id="Layer_1" xmlns="http://www.w3.org/2000/svg" xmlns:xlink="http://www.w3.org/1999/xlink" 
	 viewBox="0 0 512 512" xml:space="preserve">
<path style="fill:#FFC222;" d="M512,0H256l-20.899,25.078L256,53.901h69.254c14.288,0,25.871,11.583,25.871,25.871l0,0
	c0,14.288-11.583,25.871-25.871,25.871H256l-20.899,212.007L256,512h256V0z"/>
<path style="fill:#FEDF77;" d="M186.746,105.642c-14.288,0-25.871-11.583-25.871-25.871l0,0c0-14.288,11.583-25.871,25.871-25.871
	H256V0H0v512h256V105.642H186.746z"/>
<polygon style="fill:#D61322;" points="95.964,305.736 85.514,340.636 95.964,440.329 111.638,440.329 111.638,365.74 
	133.191,387.294 155.356,365.128 "/>
<polygon style="fill:#EC2533;" points="36.571,365.128 58.737,387.294 80.291,365.74 80.291,440.329 95.964,440.329 95.964,305.736 
	"/>
<polygon style="fill:#D61322;" points="230.537,305.736 220.087,340.636 230.537,440.329 246.21,440.329 246.21,365.74 
	267.763,387.294 289.929,365.128 "/>
<polygon style="fill:#EC2533;" points="171.144,365.128 193.309,387.294 214.863,365.74 214.863,440.329 230.537,440.329 
	230.537,305.736 "/>
</svg>